# xmcd CD database file
#
# Track frame offsets:
#	150
#	17502
#	36185
#	55026
#	85462
#	103265
#	125139
#	154871
#	177142
#	208780
#	230950
#	249230
#	268585
#	302802
#	317035
#	336267
#
# Disc length: 4878 seconds
#
# Revision: 0
# Processed by: cddbd v1.5.1PL2 Copyright (c) Steve Scherf et al.
# Submitted via: Feurio! 1.68 - http://www.feurio.com
#
DISCID=e4130c10
DTITLE=Gary Moore - 1982 - 1994   Blues And Ballads  
DYEAR=1900
DGENRE=Bluesrock
TTITLE0=Always Gonna Love You
TTITLE1=Still got the blues
TTITLE2=Empty Rooms
TTITLE3=Parisienne Walkways
TTITLE4=One day
TTITLE5=Separate ways
TTITLE6=Story of the Blues
TTITLE7=Crying In The Shadows
TTITLE8=With Love (Remember)
TTITLE9=Midnight Blues
TTITLE10=Falling In Love With You
TTITLE11=Jumpin' At Shadows
TTITLE12=Blues For Narada
TTITLE13=Johnny Boy
TTITLE14=Still Got The Blues (Acustic)
TTITLE15=King Of The Blues
EXTD=
EXTT0=
EXTT1=
EXTT2=
EXTT3=
EXTT4=
EXTT5=
EXTT6=
EXTT7=
EXTT8=
EXTT9=
EXTT10=
EXTT11=
EXTT12=
EXTT13=
EXTT14=
EXTT15=
PLAYORDER=
